{"title":"M.Audiard-San.Antonio-Sale.temps.pour.les.mouches.avi","uid":7847055,"size":655083520,"categoryP":"video","categoryS":"movies","magnet":"?xt=urn:btih:4dc3be50fb22bc37be7c1d2896d271cf3c2ae1bb&amp;dn=M.Audiard-San.Antonio-Sale.temps.pour.les.mouches.avi&amp;tr=udp%3A%2F%2Ftracker.openbittorrent.com%3A80&amp;tr=udp%3A%2F%2Fopen.demonii.com%3A1337&amp;tr=udp%3A%2F%2Ftracker.coppersurfer.tk%3A6969&amp;tr=udp%3A%2F%2Fexodus.desync.com%3A6969","seeders":1,"leechers":0,"uploader":"Bonie75","files":-1,"time":1353457669,"description":"FrancaisAudiardM.Audiard-San.Antonio-Sale.temps.pour.les.mouches.avi\nFormat                                   : AVI\nFormat/Info                              : Audio Video Interleave\nFile size                                : 625 MiB\nDuration                                 : 1h 28mn\nOverall bit rate                         : 983 Kbps\n\nVideo\nID                                       : 0\nFormat                                   : MPEG-4 Visual\nFormat settings, BVOP                    : No\nFormat settings, QPel                    : No\nFormat settings, GMC                     : No warppoints\nFormat settings, Matrix                  : Default (H.263)\nCodec ID                                 : DX50\nCodec ID/Hint                            : DivX 5\nDuration                                 : 1h 28mn\nBit rate                                 : 845 Kbps\nWidth                                    : 576 pixels\nHeight                                   : 320 pixels\nDisplay aspect ratio                     : 16:9\nFrame rate                               : 25.000 fps\nColor space                              : YUV\nChroma subsampling                       : 4:2:0\nBit depth                                : 8 bits\nScan type                                : Progressive\nCompression mode                         : Lossy\nBits/(Pixel*Frame)                       : 0.183\nStream size                              : 537 MiB (86%)\nTitle                                    : mpeg2avi {IDCT32MMX} '-q1'\nWriting library                          : DivX 5.1.1 (Maupiti) (UTC 2003-11-19)\n\nAudio\nID                                       : 1\nFormat                                   : MPEG Audio\nFormat version                           : Version 1\nFormat profile                           : Layer 3\nMode                                     : Joint stereo\nMode extension                           : MS Stereo\nCodec ID                                 : 55\nCodec ID/Hint                            : MP3\nDuration                                 : 1h 28mn\nBit rate mode                            : Constant\nBit rate                                 : 128 Kbps\nChannel(s)                               : 2 channels\nSampling rate                            : 44.1 KHz\nCompression mode                         : Lossy\nStream size                              : 81.3 MiB (13%)\nAlignment                                : Split accross interleaves\nInterleave, duration                     : 40 ms (1.00 video frame)\nInterleave, preload duration             : 79 ms\nWriting library                          : LAME3.92 \nEncoding settings                        : -m j -V 4 -q 2 -lowpass 15.4 -b 128\n","torrent":{"xt":"urn:btih:4dc3be50fb22bc37be7c1d2896d271cf3c2ae1bb","amp;dn":"M.Audiard-San.Antonio-Sale.temps.pour.les.mouches.avi","amp;tr":["udp%3A%2F%2Ftracker.openbittorrent.com%3A80","udp%3A%2F%2Fopen.demonii.com%3A1337","udp%3A%2F%2Ftracker.coppersurfer.tk%3A6969","udp%3A%2F%2Fexodus.desync.com%3A6969"],"infoHash":"4dc3be50fb22bc37be7c1d2896d271cf3c2ae1bb","infoHashBuffer":{"type":"Buffer","data":[77,195,190,80,251,34,188,55,190,124,29,40,150,210,113,207,60,42,225,187]},"announce":[],"urlList":[]}}